# AST/ASF file generated using VICON BodyLanguage
# -----------------------------------------------
:version 1.10
:name VICON
:units
  mass 1.0
  length 0.45
  angle deg
:documentation
   .ast/.asf automatically generated from VICON data using
   VICON BodyBuilder and BodyLanguage model FoxedUp or BRILLIANT.MOD
:root
   order TX TY TZ RX RY RZ
   axis XYZ
   position 0 0 0  
   orientation 0 0 0 
:bonedata
  begin
     id 1 
     name lhipjoint
     direction 0.523584 -0.783993 0.333487 
     length 2.44404 
     axis 0 0 0  XYZ
  end
  begin
     id 2 
     name lfemur
     direction 0.34202 -0.939693 0  
     length 7.29523  
     axis 0 0 20  XYZ
    dof rx ry rz
    limits (-160.0 20.0)
           (-70.0 70.0)
           (-60.0 70.0)
  end
  begin
     id 3 
     name ltibia
     direction 0.34215 -0.939645 0   
     length 7.81194   
     axis 0 0 20   XYZ
    dof rx
    limits (-10.0 170.0)
  end
  begin
     id 4 
     name lfoot
     direction 0.0941847 -0.25877 0.961336   
     length 2.41437   
     axis -90 7.62852e-016 20   XYZ
    dof rx rz
    limits (-45.0 90.0)
           (-70.0 20.0)
  end
  begin
     id 5 
     name ltoes
     direction 1.53526e-011 -4.21768e-011 1   
     length 1.2048   
     axis -90 7.62852e-016 20   XYZ
    dof rx
    limits (-90.0 20.0)
  end
  begin
     id 6 
     name rhipjoint
     direction -0.46599 -0.814191 0.346332   
     length 2.35339  
     axis 0 0 0  XYZ 
  end
  begin
     id 7 
     name rfemur
     direction -0.34202 -0.939693 0   
     length 7.34966   
     axis 0 0 -20   XYZ
    dof rx ry rz
    limits (-160.0 20.0)
           (-70.0 70.0)
           (-70.0 60.0)
  end
  begin
     id 8 
     name rtibia
     direction -0.34202 -0.939693 0   
     length 7.89934   
     axis 0 0 -20   XYZ
    dof rx
    limits (-10.0 170.0)
 end
 begin
     id 9 
     name rfoot
     direction -0.0975468 -0.268008 0.958466   
     length 2.27725  
     axis -90 -7.62852e-016 -20   XYZ
    dof rx rz
    limits (-45.0 90.0)
           (-20.0 70.0)
  end
  begin
     id 10 
     name rtoes
     direction -1.53563e-011 -4.22022e-011 1   
     length 1.13683   
     axis -90 -7.62852e-016 -20   XYZ
    dof rx
    limits (-90.0 20.0)
  end
  begin
     id 11 
     name lowerback
     direction -0.00456414 0.999242 -0.0386661   
     length 2.16968   
     axis 0 0 0   XYZ
    dof rx ry rz
    limits (-20.0 45.0)
           (-30.0 30.0)
           (-30.0 30.0)
  end
  begin
     id 12 
     name upperback
     direction 0.0297078 0.998988 0.0337799   
     length 2.15674   
     axis 0 0 0   XYZ
    dof rx ry rz
    limits (-20.0 45.0)
           (-30.0 30.0)
           (-30.0 30.0)
  end
  begin
     id 13 
     name thorax
     direction 0.0309305 0.998202 0.0513506   
     length 2.16319   
     axis 0 0 0   XYZ
    dof rx ry rz
    limits (-20.0 45.0)
           (-30.0 30.0)
           (-30.0 30.0)
  end
  begin
     id 14 
     name lowerneck
     direction -0.103039 0.983474 0.148872   
     length 1.64318   
     axis 0 0 0   XYZ
    dof rx ry rz
    limits (-20.0 45.0)
           (-30.0 30.0)
           (-30.0 30.0)
  end
  begin
     id 15 
     name upperneck
     direction 0.128124 0.971079 -0.201469   
     length 1.68242   
     axis 0 0 0   XYZ
    dof rx ry rz
    limits (-20.0 45.0)
           (-30.0 30.0)
           (-30.0 30.0)
  end
  begin
     id 16
     name head
     direction 0.0496365 0.994919 -0.0875941  
     length 1.70108  
     axis 0 0 0   XYZ
    dof rx ry rz
    limits (-20.0 45.0)
           (-30.0 30.0)
           (-30.0 30.0)
  end
  begin
     id 17 
     name lclavicle
     direction 0.887148 0.430222 -0.166967  
     length 3.25763  
     axis 0 0 0   XYZ
    dof ry rz
    limits (-20.0 10.0)
           (0.0 20.0)
  end
  begin
     id 18 
     name lhumerus
     direction 1 -4.48962e-011 1.92156e-027   
     length 5.10755   
     axis 180 -30 -90   XYZ
    dof rx ry rz
    limits (-60.0 90.0)
           (-90.0 90.0)
           (-90.0 90.0)
  end
  begin
     id 19
     name lradius
     direction 1 -4.48958e-011 7.10963e-027   
     length 3.36253   
     axis 180 -30 -90   XYZ
    dof rx
    limits (-10.0 170.0)
  end
  begin
     id 20
     name lwrist
     direction 1 -4.48946e-011 1.82396e-026   
     length 1.68127   
     axis -1.15222e-014 90 90   XYZ
    dof ry
    limits (-180.0 0.0)
 end
  begin
     id 21 
     name lhand
     direction 1 -4.48919e-011 3.64759e-026   
     length 0.619088   
     axis -2.32787e-014 90 90   XYZ
    dof rx rz
    limits (-90.0 90.0)
           (-45.0 45.0)
  end
  begin
     id 22 
     name lfingers
     direction 1 -4.49012e-011 7.29744e-026   
     length 0.499125   
     axis -4.6558e-014 90 90   XYZ
    dof rx
    limits (0.0 90.0)
  end
  begin
     id 23
     name lthumb
     direction 0.707107 -6.35028e-011 0.707107   
     length 0.716646   
     axis -90 45 3.78391e-014   XYZ
    dof rx rz
    limits (-45.0 45.0)
           (-45.0 45.0)
  end
  begin
     id 24 
     name rclavicle
     direction -0.82886 0.533198 -0.169384   
     length 3.20647  
     axis 0 0 0   XYZ 
    dof ry rz
    limits (-10.0 20.0)
           (-20.0 0.0)
  end
  begin
     id 25 
     name rhumerus
     direction -1 -4.48973e-011 3.06863e-027  
     length 5.27387   
     axis 180 30 90   XYZ
    dof rx ry rz
    limits (-90.0 60.0)
           (-90.0 90.0)
           (-90.0 90.0)
  end
  begin
     id 26 
     name rradius
     direction -1 -4.48988e-011 9.4797e-027   
     length 3.40144   
     axis 180 30 90   XYZ
    dof rx
    limits (-10.0 170.0)
  end
  begin
     id 27 
     name rwrist
     direction -1 -4.48897e-011 1.82366e-026   
     length 1.70072   
     axis -1.15222e-014 -90 -90   XYZ
    dof ry
    limits (-180.0 0.0)
  end
  begin
     id 28
     name rhand
     direction -1 -4.48965e-011 3.64815e-026   
     length 0.742821   
     axis -2.32787e-014 -90 -90   XYZ
    dof rx rz
    limits (-90.0 90.0)
           (-45.0 45.0)
  end
  begin
     id 29
     name rfingers
     direction -1 -4.49016e-011 7.29754e-026   
     length 0.598881   
     axis -4.6558e-014 -90 -90   XYZ
    dof rx
    limits (0.0 90.0)
  end
  begin
     id 30
     name rthumb
     direction -0.707107 -6.3488e-011 0.707107   
     length 0.859877   
     axis -90 -45 -3.78391e-014   XYZ
    dof rx rz
    limits (-45.0 45.0)
           (-45.0 45.0)
  end
:hierarchy
  begin
    root lhipjoint rhipjoint lowerback
    lhipjoint lfemur
    lfemur ltibia
    ltibia lfoot
    lfoot ltoes
    rhipjoint rfemur
    rfemur rtibia
    rtibia rfoot
    rfoot rtoes
    lowerback upperback
    upperback thorax
    thorax lowerneck lclavicle rclavicle
    lowerneck upperneck
    upperneck head
    lclavicle lhumerus
    lhumerus lradius
    lradius lwrist
    lwrist lhand lthumb
    lhand lfingers
    rclavicle rhumerus
    rhumerus rradius
    rradius rwrist
    rwrist rhand rthumb
    rhand rfingers
  end

#!OML:ASF F:\Work\Patient Classification 1\justin\Session 1\justin.ASF
:FULLY-SPECIFIED
:DEGREES
870
root 0.742178 15.2052 15.5731 169.229 -79.4721 -196.228
lowerback 23.5916 1.81188 -2.45442
upperback 14.5776 0.2338 3.7587
thorax 2.92684 -0.970277 5.38624
lowerneck -14.7332 -4.07444 -16.9458
upperneck 31.8148 -5.40365 9.90574
head 14.061 -3.46948 6.02273
rclavicle -1.74931e-014 -6.36111e-015
rhumerus -29.0963 24.7661 -87.2444
rradius 80.1407
rwrist 11.1305
rhand -25.1158 22.7811
rfingers 7.12502
rthumb 1.39975 -7.19408
lclavicle -1.74931e-014 -6.36111e-015
lhumerus -29.4518 -15.6756 97.8898
lradius 71.5708
lwrist -3.60318
lhand -34.219 25.7671
lfingers 7.12502
lthumb -7.39094 55.618
rfemur -35.2061 -11.1333 9.4539
rtibia 65.5958
rfoot -4.63249 -6.05341
rtoes 5.42434
lfemur -29.793 20.1278 -13.6113
ltibia 81.9293
lfoot -4.14376 -7.84715
ltoes -28.1337
871
root 0.729606 15.2191 15.5584 168.031 -79.2008 -194.886
lowerback 23.769 1.92436 -2.43318
upperback 14.5874 0.368078 3.89995
thorax 2.83896 -0.912659 5.50389
lowerneck -14.62 -4.13954 -16.9484
upperneck 31.7757 -5.48811 9.80307
head 14.032 -3.51995 5.96258
rclavicle 1.15295e-014 9.54166e-015
rhumerus -29.2147 25.2663 -87.0104
rradius 80.407
rwrist 11.1633
rhand -24.6199 23.2276
rfingers 7.12502
rthumb 1.87871 -6.74389
lclavicle 1.15295e-014 9.54166e-015
lhumerus -29.4674 -15.4507 97.8973
lradius 71.5051
lwrist -3.78132
lhand -33.9801 25.7033
lfingers 7.12502
lthumb -7.16038 55.5622
rfemur -35.1177 -10.1316 9.53867
rtibia 65.0393
rfoot -4.66791 -6.25783
rtoes 8.18561
lfemur -29.4034 20.1372 -13.0875
ltibia 81.0493
lfoot -4.61187 -7.44843
ltoes -27.247
872
root 0.717274 15.2247 15.5584 167.308 -79.0115 -193.881
lowerback 23.9048 1.95323 -2.26345
upperback 14.5417 0.435715 3.98796
thorax 2.71469 -0.868132 5.49071
lowerneck -14.5748 -4.21955 -16.966
upperneck 31.7915 -5.58496 9.70793
head 14.0457 -3.57763 5.90911
rclavicle 2.34566e-014 -1.90833e-014
rhumerus -29.1224 24.9159 -87.0798
rradius 80.3544
rwrist 11.6966
rhand -24.0032 23.715
rfingers 7.12502
rthumb 2.47423 -6.25035
lclavicle 2.34566e-014 -1.90833e-014
lhumerus -29.531 -15.5216 97.9654
lradius 71.5193
lwrist -3.72642
lhand -33.6193 25.4891
lfingers 7.12502
lthumb -6.81205 55.3595
rfemur -35.2945 -9.36822 9.54591
rtibia 64.6004
rfoot -4.52074 -6.44605
rtoes 7.49994
lfemur -29.2689 19.8029 -12.8917
ltibia 80.1897
lfoot -5.01166 -6.84413
ltoes -25.7514
873
root 0.705907 15.227 15.559 168.924 -78.9869 -195.258
lowerback 24.0759 2.01076 -2.3425
upperback 14.523 0.495217 3.83486
thorax 2.60309 -0.831164 5.35716
lowerneck -14.5368 -4.3103 -16.7619
upperneck 31.6821 -5.76379 9.67575
head 14.0109 -3.62784 5.82434
rclavicle 2.82274e-014 -2.06736e-014
rhumerus -29.0877 24.8158 -87.07
rradius 80.5103
rwrist 11.7466
rhand -23.7891 23.7997
rfingers 7.12502
rthumb 2.68101 -6.16316
lclavicle 2.82274e-014 -2.06736e-014
lhumerus -29.5208 -15.8091 97.8588
lradius 71.4747
lwrist -3.70569
lhand -33.4741 25.4494
lfingers 7.12502
lthumb -6.67192 55.3243
rfemur -35.4946 -8.63033 9.04396
rtibia 64.2566
rfoot -4.63902 -6.83371
rtoes 8.09826
lfemur -29.1277 19.5076 -13.3158
ltibia 79.2116
lfoot -5.43524 -6.35322
ltoes -25.1262
874
root 0.699787 15.2422 15.5579 171.971 -79.1133 -198.069
lowerback 24.2258 2.0207 -2.77576
upperback 14.5103 0.422743 3.61569
thorax 2.52415 -0.882735 5.38316
lowerneck -14.636 -4.33159 -16.6743
upperneck 31.641 -5.81497 9.73912
head 14.0215 -3.62539 5.82573
rclavicle -3.57812e-014 -4.29375e-014
rhumerus -28.9904 25.2726 -86.7911
rradius 80.7985
rwrist 11.4636
rhand -23.8266 23.544
rfingers 7.12502
rthumb 2.64484 -6.41933
lclavicle -3.57812e-014 -4.29375e-014
lhumerus -29.4241 -15.7355 97.7014
lradius 71.3512
lwrist -4.01177
lhand -33.4606 25.9812
lfingers 7.12502
lthumb -6.6589 55.8565
rfemur -35.7283 -7.97293 8.17786
rtibia 63.9666
rfoot -4.87543 -7.21286
rtoes 12.5213
lfemur -28.94 18.7214 -14.1183
ltibia 78.1518
lfoot -5.80372 -5.84212
ltoes -24.337
875
root 0.697864 15.269 15.5541 172.908 -79.273 -198.779
lowerback 24.4335 1.94786 -2.92235
upperback 14.4796 0.291414 3.61165
thorax 2.40707 -0.957623 5.49503
lowerneck -14.7402 -4.41246 -17.3055
upperneck 31.6532 -5.88658 10.2091
head 14.1071 -3.67296 6.12818
rclavicle -6.36111e-015 3.18055e-014
rhumerus -29.0476 25.6436 -86.985
rradius 80.9044
rwrist 11.5665
rhand -24.2024 23.108
rfingers 7.12502
rthumb 2.2819 -6.85954
lclavicle -6.36111e-015 3.18055e-014
lhumerus -29.37 -15.4793 97.825
lradius 71.2357
lwrist -4.41893
lhand -33.3468 26.3311
lfingers 7.12502
lthumb -6.54898 56.2099
rfemur -35.851 -7.46146 7.79094
rtibia 63.6684
rfoot -4.57494 -7.23553
rtoes 8.58147
lfemur -28.691 17.3998 -14.4409
ltibia 77.1562
lfoot -6.16015 -5.51006
ltoes -23.7045
876
root 0.685916 15.2658 15.5519 172.398 -79.3582 -198.056
lowerback 24.719 1.89313 -2.76048
upperback 14.4524 0.239388 3.67007
thorax 2.24744 -0.975887 5.48222
lowerneck -14.6765 -4.48503 -17.4918
upperneck 31.4687 -5.98013 10.3667
head 14.0425 -3.70688 6.20414
rclavicle 1.94809e-014 -2.22639e-014
rhumerus -29.0181 25.8054 -87.1231
rradius 80.9725
rwrist 11.6787
rhand -24.1525 23.0002
rfingers 7.12502
rthumb 2.33006 -6.96685
lclavicle 1.94809e-014 -2.22639e-014
lhumerus -29.3306 -15.3835 97.9732
lradius 71.0875
lwrist -4.72721
lhand -33.1942 25.7535
lfingers 7.12502
lthumb -6.40171 55.6368
rfemur -35.8311 -7.21661 7.93591
rtibia 63.327
rfoot -3.55099 -7.00964
rtoes -4.13785
lfemur -28.569 16.5128 -14.3853
ltibia 76.334
lfoot -6.54487 -5.62383
ltoes -24.7962
